<svg xmlns="http://www.w3.org/2000/svg" width="340" height="38" viewBox="0 0 340 38">
  <g fill="none" fill-rule="evenodd">
    <polyline fill="#0D1A31" points="279.414 29.612 290.845 29.612 290.845 31.094 277.676 31.094 277.676 6.988 279.414 6.988 279.414 29.612"/>
    <path fill="#0D1A31" d="M298.738934 30.191855C299.39791 30.191855 300.002516 30.1208102 300.553475 29.9787207 301.104435 29.8359062 301.615522 29.6379957 302.086738 29.3820896 302.558678 29.1269083 302.997996 28.8231557 303.406866 28.4708316 303.815736 28.1185075 304.219531 27.7379104 304.616077 27.3290405L304.616077 22.91629C303.003795 22.9626866 301.615522 23.0844776 300.451258 23.283113 299.286994 23.4824733 298.327889 23.7514286 297.572495 24.0921535 296.8171 24.4328785 296.260341 24.8395736 295.902942 25.310064 295.544819 25.7820043 295.366482 26.3184648 295.366482 26.9201706 295.366482 27.4885288 295.46 27.9793177 295.647036 28.3939872 295.834072 28.8086567 296.081279 29.1493817 296.388657 29.416162 296.695309 29.6829424 297.052708 29.879403 297.461578 30.0040938 297.870448 30.1295096 298.296716 30.191855 298.738934 30.191855zM305.553433 31.0944136C305.213433 31.0944136 305.003198 30.9356503 304.923454 30.6166738L304.684947 28.4534328C304.219531 28.9079744 303.75629 29.3168443 303.296674 29.6800426 302.836333 30.0439659 302.356418 30.3498934 301.85693 30.6 301.356716 30.8501066 300.817356 31.0407676 300.238124 31.170533 299.659616 31.3017484 299.023113 31.3669936 298.330789 31.3669936 297.751557 31.3669936 297.188998 31.2821748 296.643838 31.1110874 296.097953 30.9407249 295.615139 30.6797441 295.195394 30.32742 294.774925 29.9758209 294.4371 29.5241791 294.181919 28.9732196 293.926013 28.4222601 293.799147 27.7611087 293.799147 26.9890405 293.799147 26.2727932 294.003582 25.6080171 294.411727 24.9954371 294.821322 24.3821322 295.46 23.8485714 296.328486 23.3940299 297.197697 22.9402132 298.31629 22.57629 299.684989 22.30371 301.052964 22.0311301 302.697143 21.8716418 304.616077 21.8266951L304.616077 20.0549254C304.616077 18.4875906 304.278977 17.2805544 303.603326 16.4345416 302.926951 15.5885288 301.925075 15.1651599 300.596247 15.1651599 299.778507 15.1651599 299.082559 15.2789765 298.509851 15.5058849 297.935693 15.7335181 297.449979 15.9828998 297.052708 16.2562047 296.654712 16.5280597 296.331386 16.7781663 296.081279 17.0050746 295.831173 17.2327079 295.621663 17.3457996 295.451301 17.3457996 295.223667 17.3457996 295.053305 17.2435821 294.940213 17.0391471L294.650235 16.5454584C295.536119 15.6595736 296.467676 14.9889979 297.444904 14.5351812 298.421407 14.0813646 299.528401 13.8537313 300.76661 13.8537313 301.674968 13.8537313 302.46951 13.9987207 303.151684 14.2879744 303.833134 14.5772281 304.397868 14.9926226 304.84661 15.531258 305.295352 16.0713433 305.633177 16.7237953 305.860085 17.4907889 306.087719 18.2577825 306.20081 19.1117697 306.20081 20.0549254L306.20081 31.0944136 305.553433 31.0944136 305.553433 31.0944136zM318.271173 15.1651599C317.14533 15.1651599 316.12678 15.4544136 315.216972 16.034371 314.307164 16.6136034 313.493774 17.4197441 312.776802 18.4535181L312.776802 27.3971855C313.425629 28.3744136 314.141876 29.0580384 314.926994 29.4502345 315.711386 29.8417058 316.616119 30.0381663 317.639744 30.0381663 318.640896 30.0381663 319.516631 29.8569296 320.267676 29.4930064 321.017996 29.1298081 321.647249 28.6158209 322.153262 27.9510448 322.659275 27.2869936 323.039872 26.4917271 323.295778 25.5659701 323.552409 24.6402132 323.68 23.6209382 323.68 22.508145 323.68 19.9867804 323.213859 18.1323667 322.281578 16.945629 321.347846 15.7588913 320.01177 15.1651599 318.271173 15.1651599zM311.158721 31.0944136L311.158721 6.3063113 312.776802 6.3063113 312.7942 17.1072921C313.543795 16.1083156 314.412281 15.3181237 315.400384 14.7396162 316.389211 14.1603838 317.502004 13.8704051 318.739488 13.8704051 320.81791 13.8704051 322.438891 14.5888273 323.603881 16.0256716 324.76742 17.462516 325.349552 19.6228571 325.349552 22.508145 325.349552 23.7463539 325.187164 24.901919 324.863113 25.9748401 324.539062 27.0484861 324.062047 27.9793177 323.430618 28.7687846 322.79919 29.5582516 322.026397 30.1802559 321.110789 30.6340725 320.195181 31.0886141 319.140384 31.3155224 317.946397 31.3155224 316.763284 31.3155224 315.745458 31.0857143 314.892196 30.6253731 314.038934 30.1657569 313.306013 29.4872068 312.691983 28.5904478L312.59049 30.668145C312.557143 30.9523241 312.405629 31.0944136 312.135224 31.0944136L311.158721 31.0944136 311.158721 31.0944136zM338.709595 16.2562047C338.629851 16.414968 338.50516 16.4939872 338.334797 16.4939872 338.209382 16.4939872 338.048443 16.4229424 337.849083 16.2815778 337.650448 16.1394883 337.388742 15.9807249 337.065416 15.803838 336.74209 15.6284009 336.344094 15.4689126 335.873603 15.327548 335.401663 15.1854584 334.82533 15.1144136 334.143881 15.1144136 333.530576 15.1144136 332.971642 15.2021322 332.465629 15.3775693 331.960341 15.5537313 331.528273 15.7886141 331.170874 16.0829424 330.813475 16.3772708 330.534371 16.7201706 330.336461 17.1109168 330.137825 17.5016631 330.038507 17.9119829 330.038507 18.3426013 330.038507 18.8747122 330.174072 19.3169296 330.446652 19.6678038 330.719232 20.018678 331.077356 20.318806 331.520299 20.5681876 331.963241 20.8175693 332.465629 21.0328785 333.028188 21.2141151 333.590021 21.3953518 334.166354 21.5765885 334.75791 21.7585501 335.348017 21.9405117 335.92435 22.141322 336.486183 22.3631557 337.048742 22.5842644 337.55113 22.8597441 337.994072 23.1888699 338.437015 23.5194456 338.795139 23.921791 339.067719 24.398806 339.340299 24.8765458 339.475864 25.4550533 339.475864 26.1365032 339.475864 26.8744989 339.343198 27.5624733 339.076418 28.1982516 338.808913 28.8347548 338.422516 29.3849893 337.917228 29.8504051 337.41194 30.3165458 336.789936 30.6848188 336.05194 30.9573987 335.31322 31.2307036 334.473006 31.3669936 333.530576 31.3669936 332.338763 31.3669936 331.310064 31.1763326 330.446652 30.7964606 329.583966 30.4158635 328.811173 29.9192751 328.130448 29.3052452L328.521919 28.7260128C328.578465 28.6353945 328.641535 28.5672495 328.70968 28.5215778 328.777825 28.4759062 328.873518 28.4534328 328.998934 28.4534328 329.146098 28.4534328 329.32806 28.5447761 329.544094 28.7260128 329.760128 28.9079744 330.041407 29.104435 330.387207 29.3139446 330.733731 29.5241791 331.165075 29.7199147 331.681962 29.9018763 332.198849 30.083113 332.837527 30.1744563 333.598721 30.1744563 334.314243 30.1744563 334.944222 30.0751386 335.489382 29.8757783 336.034542 29.6778678 336.489083 29.4081876 336.852281 29.0667377 337.216205 28.7260128 337.491684 28.3258422 337.679446 27.866226 337.866482 27.4058849 337.960725 26.9201706 337.960725 26.4090832 337.960725 25.8414499 337.82371 25.3695096 337.55113 24.9954371 337.27855 24.6206397 336.921151 24.303113 336.478209 24.0414072 336.034542 23.7804264 335.532878 23.5585928 334.97032 23.3766311 334.407761 23.1953945 333.828529 23.0134328 333.232623 22.8314712 332.636716 22.6502345 332.056759 22.4515991 331.494925 22.235565 330.932367 22.0195309 330.429979 21.746951 329.987036 21.4178252 329.544094 21.0879744 329.186695 20.6878038 328.914115 20.2165885 328.641535 19.7453731 328.505245 19.1574414 328.505245 18.4535181 328.505245 17.8518124 328.635011 17.271855 328.897441 16.7158209 329.157697 16.1590618 329.53032 15.6704478 330.013134 15.2507036 330.495224 14.8302345 331.083156 14.4953092 331.77548 14.2452026 332.468529 13.9958209 333.247122 13.8704051 334.109808 13.8704051 335.143582 13.8704051 336.059915 14.0204691 336.860981 14.3198721 337.662047 14.6192751 338.397143 15.0774414 339.067719 15.6936461L338.709595 16.2562047"/>
    <polyline fill="#0D1A31" points="54.591 30.915 54.591 6.973 58.791 6.973 58.791 27.218 69.344 27.218 69.344 30.915 54.591 30.915"/>
    <path fill="#0D1A31" d="M83.8698081 30.9153518L83.8698081 28.6179957C82.6134755 30.0178678 80.4596588 31.3459701 77.7316844 31.3459701 73.998209 31.3459701 72.1677186 29.4081876 72.1677186 25.853774L72.1677186 13.5775267 75.9367164 13.5775267 75.9367164 24.4894243C75.9367164 27.1818763 77.3010661 28.0075906 79.4186354 28.0075906 81.3208955 28.0075906 82.9723241 26.9310448 83.8698081 25.7464819L83.8698081 13.5775267 87.638806 13.5775267 87.638806 30.9153518 83.8698081 30.9153518M91.011258 22.2283156C91.011258 16.9876759 94.7084861 13.1469083 99.9853731 13.1469083 103.359275 13.1469083 105.405075 14.5823028 106.625885 16.2337313L104.149467 18.5310874C103.180213 17.1667377 101.852111 16.4852878 100.164435 16.4852878 97.0058422 16.4852878 94.9237953 18.8544136 94.9237953 22.2283156 94.9237953 25.6022175 97.0058422 28.0075906 100.164435 28.0075906 101.852111 28.0075906 103.180213 27.2898934 104.149467 25.961791L106.625885 28.2591471C105.405075 29.9105757 103.359275 31.3459701 99.9853731 31.3459701 94.7084861 31.3459701 91.011258 27.5052026 91.011258 22.2283156M109.241493 30.9153518L113.01049 30.9153518 113.01049 13.5775267 109.241493 13.5775267 109.241493 30.9153518zM108.774627 9.12635394C108.774627 7.83449893 109.851898 6.79347548 111.10823 6.79347548 112.400085 6.79347548 113.441109 7.83449893 113.441109 9.12635394 113.441109 10.4189339 112.400085 11.4599574 111.10823 11.4599574 109.851898 11.4599574 108.774627 10.4189339 108.774627 9.12635394L108.774627 9.12635394zM129.652367 25.7102345L129.652367 18.8181663C128.790405 17.5255864 126.959915 16.4852878 125.165672 16.4852878 122.186141 16.4852878 120.283156 18.889936 120.283156 22.2645629 120.283156 25.6022175 122.186141 28.0075906 125.165672 28.0075906 126.959915 28.0075906 128.790405 27.0028145 129.652367 25.7102345zM129.652367 30.9153518L129.652367 28.546226C128.324264 30.2694243 126.313262 31.3459701 124.088401 31.3459701 119.637228 31.3459701 116.370618 27.9720682 116.370618 22.2645629 116.370618 16.6643497 119.601706 13.1469083 124.088401 13.1469083 126.242217 13.1469083 128.25177 14.1516844 129.652367 15.9821748L129.652367 6.97253731 133.421365 6.97253731 133.421365 30.9153518 129.652367 30.9153518 129.652367 30.9153518z"/>
    <polyline fill="#0D1A31" points="153.091 30.915 149.071 18.208 145.05 30.915 141.102 30.915 135.718 13.578 139.63 13.578 143.292 26.176 147.42 13.578 150.721 13.578 154.85 26.176 158.511 13.578 162.424 13.578 157.039 30.915 153.091 30.915"/>
    <path fill="#0D1A31" d="M177.234968 22.2283156C177.234968 19.1770149 175.439275 16.4852878 172.208913 16.4852878 169.014797 16.4852878 167.219104 19.1770149 167.219104 22.2283156 167.219104 25.3158635 169.014797 28.0075906 172.208913 28.0075906 175.439275 28.0075906 177.234968 25.3158635 177.234968 22.2283156zM163.307292 22.2283156C163.307292 17.2747548 166.717441 13.1469083 172.208913 13.1469083 177.772878 13.1469083 181.14678 17.2747548 181.14678 22.2283156 181.14678 27.2181237 177.772878 31.3459701 172.208913 31.3459701 166.717441 31.3459701 163.307292 27.2181237 163.307292 22.2283156L163.307292 22.2283156zM184.519957 30.9153518L184.519957 13.5775267 188.28968 13.5775267 188.28968 16.1264392C189.581535 14.4750107 191.663582 13.1824307 193.924691 13.1824307L193.924691 16.9159062C193.60209 16.8441365 193.206994 16.8078891 192.740128 16.8078891 191.160469 16.8078891 189.0429 17.8851599 188.28968 19.1052452L188.28968 30.9153518 184.519957 30.9153518"/>
    <polyline fill="#0D1A31" points="207.889 30.915 202.577 23.772 200.172 26.249 200.172 30.915 196.403 30.915 196.403 6.973 200.172 6.973 200.172 21.941 207.817 13.578 212.484 13.578 205.268 21.439 212.628 30.915 207.889 30.915"/>
    <path fill="#0D1A31" d="M213.583795,28.6542431 L215.306994,25.9262687 C216.527804,27.1818763 218.932452,28.3664392 221.193561,28.3664392 C223.455394,28.3664392 224.60371,27.3971855 224.60371,26.0335608 C224.60371,22.6234115 214.122431,25.064307 214.122431,18.4237953 C214.122431,15.5878038 216.563326,13.1469083 220.942729,13.1469083 C223.886013,13.1469083 226.111599,14.1879318 227.691258,15.5878038 L226.111599,18.2440085 C225.070576,17.0594456 223.132068,16.1619616 220.978252,16.1619616 C219.004222,16.1619616 217.747889,17.0594456 217.747889,18.2795309 C217.747889,21.3670789 228.229168,19.0697228 228.229168,25.961791 C228.229168,29.0130917 225.680981,31.3459701 221.014499,31.3459701 C218.071215,31.3459701 215.378763,30.4122388 213.583795,28.6542431"/>
    <polyline fill="#AC090F" points="35.811 23.04 12.919 28.111 7.849 5.217 0 6.956 6.808 37.697 37.549 30.89 35.811 23.04"/>
    <polyline fill="#DC2F30" points="34.22 15.857 30.741 .148 15.032 3.627 18.511 19.336 34.22 15.857"/>
    <polygon fill="#0D1A31" points="252.229 34.781 253.679 34.781 253.679 4.26 252.229 4.26"/>
  </g>
</svg>
