<?xml version="1.0" encoding="UTF-8" standalone="no"?>
<svg width="240px" height="40px" viewBox="0 0 240 40" version="1.1" xmlns="http://www.w3.org/2000/svg" xmlns:xlink="http://www.w3.org/1999/xlink">
    <!-- Generator: Sketch 41.2 (35397) - http://www.bohemiancoding.com/sketch -->
    <title>Lucidworks_LogoWhite</title>
    <desc>Created with Sketch.</desc>
    <defs></defs>
    <g id="Symbols" stroke="none" stroke-width="1" fill="none" fill-rule="evenodd">
        <g id="logo---dark">
            <g id="Lucidworks_LogoWhite">
                <polyline id="Fill-1" fill="#0D1A31" points="57.3861386 32.6732673 57.3861386 7.48514851 61.7821782 7.48514851 61.7821782 28.7524752 72.8316832 28.7524752 72.8316832 32.6732673 57.3861386 32.6732673"></polyline>
                <path d="M88.1584158,32.6732673 L88.1584158,30.2970297 C86.8514851,31.7227723 84.5940594,33.1485149 81.7425743,33.1485149 C77.8217822,33.1485149 75.9207921,31.1287129 75.9207921,27.3267327 L75.9207921,14.3762376 L79.8415842,14.3762376 L79.8415842,25.9009901 C79.8415842,28.7524752 81.2673267,29.5841584 83.5247525,29.5841584 C85.5445545,29.5841584 87.2079208,28.3960396 88.1584158,27.2079208 L88.1584158,14.3762376 L92.0792079,14.3762376 L92.0792079,32.5544554 L88.1584158,32.5544554" id="Fill-2" fill="#0D1A31"></path>
                <path d="M95.7623762,23.6435644 C95.7623762,18.1782178 99.6831683,14.1386139 105.148515,14.1386139 C108.712871,14.1386139 110.851485,15.6831683 112.158416,17.3465347 L109.544554,19.7227723 C108.475248,18.2970297 107.168317,17.5841584 105.386139,17.5841584 C102.059406,17.5841584 99.9207921,20.0792079 99.9207921,23.6435644 C99.9207921,27.2079208 102.059406,29.7029703 105.386139,29.7029703 C107.168317,29.7029703 108.594059,28.990099 109.544554,27.5643564 L112.158416,29.9405941 C110.851485,31.7227723 108.712871,33.1485149 105.148515,33.1485149 C99.5643564,33.1485149 95.7623762,29.1089109 95.7623762,23.6435644" id="Fill-3" fill="#0D1A31"></path>
                <path d="M114.415842,9.86138614 C114.415842,8.55445545 115.60396,7.36633663 116.910891,7.36633663 C118.217822,7.36633663 119.405941,8.43564356 119.405941,9.86138614 C119.405941,11.1683168 118.336634,12.3564356 116.910891,12.3564356 C115.485149,12.2376238 114.415842,11.1683168 114.415842,9.86138614 L114.415842,9.86138614 L114.415842,9.86138614 Z M114.891089,14.4950495 L118.811881,14.4950495 L118.811881,32.6732673 L114.891089,32.6732673 L114.891089,14.4950495 L114.891089,14.4950495 Z" id="Fill-4" fill="#0D1A31"></path>
                <path d="M136.277228,32.6732673 L136.277228,30.1782178 C134.851485,31.960396 132.712871,33.1485149 130.455446,33.1485149 C125.821782,33.1485149 122.376238,29.5841584 122.376238,23.6435644 C122.376238,17.7029703 125.821782,14.019802 130.455446,14.019802 C132.712871,14.019802 134.851485,15.0891089 136.277228,16.990099 L136.277228,7.48514851 L140.19802,7.48514851 L140.19802,32.6732673 L136.277228,32.6732673 L136.277228,32.6732673 L136.277228,32.6732673 Z M136.277228,27.2079208 L136.277228,19.960396 C135.326733,18.6534653 133.425743,17.4653465 131.524752,17.4653465 C128.435644,17.4653465 126.415842,19.960396 126.415842,23.5247525 C126.415842,27.0891089 128.435644,29.5841584 131.524752,29.5841584 C133.544554,29.7029703 135.445545,28.6336634 136.277228,27.2079208 L136.277228,27.2079208 L136.277228,27.2079208 Z" id="Fill-5" fill="#0D1A31"></path>
                <polyline id="Fill-6" fill="#0D1A31" points="160.990099 32.6732673 156.712871 19.3663366 152.435644 32.6732673 148.277228 32.6732673 142.574257 14.4950495 146.732673 14.4950495 150.534653 27.6831683 154.930693 14.4950495 158.376238 14.4950495 162.772277 27.6831683 166.574257 14.4950495 170.732673 14.4950495 165.029703 32.6732673 160.990099 32.6732673"></polyline>
                <path d="M171.683168,23.6435644 C171.683168,18.4158416 175.247525,14.1386139 181.069307,14.1386139 C186.891089,14.1386139 190.455446,18.5346535 190.455446,23.6435644 C190.455446,28.8712871 186.891089,33.2673267 181.069307,33.2673267 C175.247525,33.1485149 171.683168,28.8712871 171.683168,23.6435644 L171.683168,23.6435644 L171.683168,23.6435644 Z M186.29703,23.6435644 C186.29703,20.4356436 184.39604,17.5841584 181.069307,17.5841584 C177.742574,17.5841584 175.841584,20.4356436 175.841584,23.6435644 C175.841584,26.8514851 177.742574,29.7029703 181.069307,29.7029703 C184.39604,29.7029703 186.29703,26.8514851 186.29703,23.6435644 L186.29703,23.6435644 L186.29703,23.6435644 Z" id="Fill-7" fill="#0D1A31"></path>
                <path d="M194.019802,32.6732673 L194.019802,14.4950495 L197.940594,14.4950495 L197.940594,17.2277228 C199.247525,15.4455446 201.50495,14.1386139 203.881188,14.1386139 L203.881188,18.0594059 C203.524752,17.9405941 203.168317,17.9405941 202.693069,17.9405941 C201.029703,17.9405941 198.772277,19.1287129 198.059406,20.3168317 L198.059406,32.6732673 L194.019802,32.6732673" id="Fill-8" fill="#0D1A31"></path>
                <polyline id="Fill-9" fill="#0D1A31" points="218.49505 32.6732673 212.910891 25.1881188 210.415842 27.8019802 210.415842 32.6732673 206.49505 32.6732673 206.49505 7.48514851 210.415842 7.48514851 210.415842 23.1683168 218.49505 14.3762376 223.366337 14.3762376 215.762376 22.6930693 223.485149 32.6732673 218.49505 32.6732673"></polyline>
                <path d="M224.554455,30.2970297 L226.336634,27.4455446 C227.643564,28.7524752 230.138614,30.0594059 232.514851,30.0594059 C234.891089,30.0594059 236.079208,28.990099 236.079208,27.5643564 C236.079208,24 225.029703,26.4950495 225.029703,19.6039604 C225.029703,16.6336634 227.643564,14.019802 232.158416,14.019802 C235.247525,14.019802 237.623762,15.0891089 239.287129,16.6336634 L237.623762,19.3663366 C236.554455,18.1782178 234.534653,17.2277228 232.277228,17.2277228 C230.257426,17.2277228 228.831683,18.1782178 228.831683,19.4851485 C228.831683,22.6930693 239.881188,20.3168317 239.881188,27.5643564 C239.881188,30.7722772 237.148515,33.2673267 232.277228,33.2673267 C229.188119,33.1485149 226.455446,32.1980198 224.554455,30.2970297" id="Fill-10" fill="#0D1A31"></path>
                <g id="Group-2">
                    <polyline id="Fill-11" fill="#AE2028" points="37.6633663 24.4752475 13.5445545 29.8217822 8.1980198 5.7029703 2.27373675e-13 7.48514851 7.12871287 39.8019802 39.4455446 32.6732673 37.6633663 24.4752475"></polyline>
                    <polyline id="Fill-12" fill="#DC3031" points="36 16.8712871 32.3168317 0.356435644 15.8019802 4.03960396 19.4851485 20.5544554 36 16.8712871"></polyline>
                </g>
            </g>
        </g>
    </g>
</svg>